<svg xmlns="http://www.w3.org/2000/svg" width="89.171" height="71.469" viewBox="0 0 89.171 71.469"><defs><style>.a{fill:#f7ca11;}.b{fill:#fff;}</style></defs><g transform="translate(-136.06 -220.17)"><path class="a" d="M587.365,245.085a20.546,20.546,0,0,0-7.851,1.556V220.17H566.72v29.608a22.581,22.581,0,0,1,6.612,15.956v25.9h6.182v-25.9a7.853,7.853,0,0,1,15.7,0v25.9h12.8v-25.9A20.668,20.668,0,0,0,587.365,245.085Z" transform="translate(-382.78 0)"/><path class="b" d="M276.39,398.666v25.9H263.6v-25.9a7.852,7.852,0,1,0-15.7,0v25.9H235.1V374.464l12.8-4.734v9.838a20.646,20.646,0,0,1,28.494,19.1Z" transform="translate(-88.029 -132.932)"/><path class="b" d="M176.991,226.59l-.009.022-.009-.022-17.109,6.656v-4.808H147.071v9.786l-11.011,4.285.013,6.263,40.909-14.694L181.73,236v-7.73Z" transform="translate(0 -5.706)"/><path class="b" d="M701.37,304.951l19.38,7.211-.006-7L701.37,297.6Z" transform="translate(-502.46 -68.821)"/></g></svg>