<svg xmlns="http://www.w3.org/2000/svg" width="40" height="40" viewBox="0 0 40 40"><defs><style>.a,.b,.c{fill:none;}.b,.c{stroke:#f7ca11;stroke-linejoin:round;stroke-width:1.25px;}.c{stroke-linecap:round;}</style></defs><rect class="a" width="40" height="40"/><g transform="translate(-188.5 -715.499)"><g transform="translate(207.125 732.978)"><path class="b" d="M218.952,739.27l1.476-.852-2.065-3.575-1.488.858a6.867,6.867,0,0,0-2.569-1.473V732.5h-4.13v1.728a6.867,6.867,0,0,0-2.569,1.473l-1.488-.858-2.065,3.575,1.476.852a6.552,6.552,0,0,0,0,2.982l-1.473.851,2.065,3.575,1.486-.855a6.882,6.882,0,0,0,2.569,1.472v1.725h4.13v-1.725a6.882,6.882,0,0,0,2.569-1.472l1.486.855,2.065-3.575-1.473-.851A6.551,6.551,0,0,0,218.952,739.27Z" transform="translate(-204.053 -732.499)"/><circle class="b" cx="2.753" cy="2.753" r="2.753" transform="translate(5.434 5.508)"/></g><g transform="translate(193.5 721.499)"><path class="c" d="M217.468,727.006v-2.753h-17.31V721.5H193.5v21.34a2,2,0,1,0,3.995,0V727.006h22.636v6.2" transform="translate(-193.5 -721.499)"/><line class="c" x2="10.326" transform="translate(2.065 23.405)"/></g></g></svg>