<svg xmlns="http://www.w3.org/2000/svg" width="15.979" height="15.707" viewBox="0 0 15.979 15.707"><defs><style>.a,.b{fill:none;stroke:#b5b5b5;stroke-linejoin:round;}.b{stroke-linecap:round;}</style></defs><g transform="translate(0.5 0.521)"><path class="a" d="M249.966,2319.5h6.513a5.861,5.861,0,0,1-5.861,5.862H247.36a5.862,5.862,0,0,1-5.861-5.862h3.908" transform="translate(-241.499 -2310.676)"/><path class="a" d="M258.27,2306.869l.587-.587a1.3,1.3,0,0,1,2.167.974v7.52" transform="translate(-247.348 -2305.951)"/><path class="a" d="M256.906,2309.3a1.544,1.544,0,1,0-2.183-2.184l-.363.364,2.182,2.184Z" transform="translate(-245.984 -2306.201)"/><line class="b" x1="1.183" y2="0.546" transform="translate(5.922 1.713)"/><line class="b" x1="0.512" y2="1.198" transform="translate(9.513 4.643)"/><line class="b" x1="0.926" y2="0.916" transform="translate(7.353 3.482)"/><path class="b" d="M252.058,2318.151a.651.651,0,0,0-.651-.651H248.15a.651.651,0,0,0-.651.651v3.908h4.559Z" transform="translate(-243.591 -2309.979)"/></g></svg>