<svg xmlns="http://www.w3.org/2000/svg" width="16.547" height="16.685" viewBox="0 0 16.547 16.685"><defs><style>.a,.b{fill:none;stroke:#b5b5b5;stroke-linejoin:round;}.b{stroke-linecap:round;}</style></defs><g transform="translate(0.5 0.5)"><path class="a" d="M492.554,2309.5h1.789l2.7,8.111H481.5l2.7-8.111h1.8" transform="translate(-481.499 -2306.796)"/><path class="b" d="M497.046,2324.542a1.014,1.014,0,0,1-1.014,1.014H482.513a1.013,1.013,0,0,1-1.014-1.014V2321.5h15.547Z" transform="translate(-481.499 -2310.685)"/><line class="b" x2="11.942" transform="translate(1.803 5.407)"/><path class="b" d="M494.935,2310.528H487.5l.676-2.028h6.084Z" transform="translate(-483.443 -2306.472)"/><path class="b" d="M485.5,2308.2v-1.69a1.014,1.014,0,0,1,1.014-1.014h8.111a1.014,1.014,0,0,1,1.014,1.014v1.69" transform="translate(-482.795 -2305.5)"/><line class="b" transform="translate(2 15.685)"/><line class="b" transform="translate(14 15.685)"/></g></svg>