<svg xmlns="http://www.w3.org/2000/svg" width="52" height="40" viewBox="0 0 52 40"><defs><style>.a,.b,.c,.d{fill:none;}.b,.c,.d{stroke:#f7ca11;stroke-linejoin:round;}.b{stroke-width:1.25px;}.d{stroke-linecap:round;}</style></defs><rect class="a" width="52" height="40"/><path class="b" d="M385.5,2260.5v25h6.087v-1.172a2.664,2.664,0,1,1,5.326,0v1.172h12.174v-1.172a2.664,2.664,0,1,1,5.326,0v1.172H420.5v-25Z" transform="translate(-376.501 -2252.5)"/><circle class="c" cx="3.129" cy="3.129" r="3.129" transform="translate(15.806 12.685)"/><path class="c" d="M393.977,2267.5c-3.912,0-5.477,2.347-5.477,4.694h10.953C399.453,2269.847,397.888,2267.5,393.977,2267.5Z" transform="translate(-374.807 -2248.566)"/><line class="d" x2="12.518" transform="translate(27.5 23.625)"/><line class="d" x2="12.518" transform="translate(27.5 20.5)"/><line class="d" x2="12.518" transform="translate(27.5 17.375)"/><line class="d" x2="6.259" transform="translate(27.5 14.25)"/></svg>