<svg xmlns="http://www.w3.org/2000/svg" width="40" height="40" viewBox="0 0 40 40"><defs><style>.a,.b{fill:none;}.b{stroke:#f7ca11;stroke-linecap:round;stroke-linejoin:round;}</style></defs><rect class="a" width="40" height="40"/><g transform="translate(-91.5 -236.5)"><g transform="translate(105.04 241.5)"><path class="b" d="M116.739,248.118c0,3.655-6.618,11.585-6.618,11.585s-6.621-7.93-6.621-11.585a6.62,6.62,0,0,1,13.239,0Z" transform="translate(-103.5 -241.5)"/><path class="b" d="M111.646,247.162a2.482,2.482,0,1,1-2.482-2.482A2.483,2.483,0,0,1,111.646,247.162Z" transform="translate(-102.543 -240.544)"/></g><path class="b" d="M118.144,245.5h3.834l2.609,24.8H98.5l2.609-24.8h4.066" transform="translate(0 1.203)"/><line class="b" x2="24.443" transform="translate(99.322 263.674)"/><line class="b" x2="7.288" transform="translate(115.52 254.543)"/><line class="b" x2="7.52" transform="translate(100.28 254.543)"/><line class="b" y1="19.512" x2="1.264" transform="translate(105.023 251.988)"/><line class="b" x1="1.263" y1="19.512" transform="translate(117.033 251.988)"/></g></svg>