<svg xmlns="http://www.w3.org/2000/svg" width="40" height="40" viewBox="0 0 40 40"><defs><style>.a,.b{fill:none;}.b{stroke:#f7ca11;stroke-linecap:round;stroke-linejoin:round;stroke-width:1.25px;}</style></defs><rect class="a" width="40" height="40"/><g transform="translate(-92.5 -1388.5)"><path class="b" d="M119.817,1417.064v-6.08a8.8,8.8,0,0,0-5.151-8.106,3.223,3.223,0,1,0-6.439,0,8.791,8.791,0,0,0-5.151,8.106v6.08a2.642,2.642,0,0,1-2.576,2.7h21.893A2.641,2.641,0,0,1,119.817,1417.064Z" transform="translate(1.053 1.031)"/><path class="b" d="M112.4,1414.5a2.7,2.7,0,1,1-5.4,0" transform="translate(2.798 6.298)"/><path class="b" d="M100.5,1403.931a7.429,7.429,0,0,1,7.431-7.431" transform="translate(1.053 1.053)"/><path class="b" d="M97.5,1404.984a11.483,11.483,0,0,1,11.484-11.484" transform="translate(0)"/><path class="b" d="M119.431,1403.931A7.434,7.434,0,0,0,112,1396.5" transform="translate(4.015 1.053)"/><path class="b" d="M123.484,1404.984A11.486,11.486,0,0,0,112,1393.5" transform="translate(4.015)"/></g></svg>