<svg xmlns="http://www.w3.org/2000/svg" width="13.124" height="17.5" viewBox="0 0 13.124 17.5"><defs><style>.a{fill:#35528c;}</style></defs><path class="a" d="M712.761,1975.563h-1.823v-2.187a4.375,4.375,0,0,0-8.75,0v2.188h-1.822a.365.365,0,0,0-.365.365v10.208a.365.365,0,0,0,.365.365h12.4a.365.365,0,0,0,.365-.365v-10.208A.365.365,0,0,0,712.761,1975.563Zm-9.844-2.187a3.646,3.646,0,0,1,7.292,0v2.188h-7.292Zm4.01,7.19v1.925a.365.365,0,1,1-.729,0v-1.925a.729.729,0,1,1,.729,0Z" transform="translate(-700.001 -1969)"/></svg>