<svg xmlns="http://www.w3.org/2000/svg" width="26" height="40" viewBox="0 0 26 40"><defs><style>.a,.b,.e{fill:none;}.a{stroke:#fff;stroke-width:0.5px;}.b{stroke:#f7ca11;stroke-linecap:round;stroke-linejoin:round;stroke-width:1.25px;}.c{fill:#f7ca11;}.d{stroke:none;}</style></defs><g transform="translate(-451 -1363)"><g class="a" transform="translate(451 1363)"><rect class="d" width="26" height="40"/><rect class="e" x="0.25" y="0.25" width="25.5" height="39.5"/></g><g transform="translate(455.791 1367.062)"><rect class="b" width="16" height="30" rx="2" transform="translate(0.209 0.938)"/><line class="b" x1="16" transform="translate(0.209 26.58)"/><line class="b" x1="16" transform="translate(0.209 4.938)"/><path class="c" d="M61.141,4871.28a.64.64,0,0,1-.64-.64h0a.64.64,0,0,1,.64-.641h0a.641.641,0,0,1,.64.641h0a.64.64,0,0,1-.64.64Z" transform="translate(-52.792 -4841.927)"/></g></g></svg>