<svg xmlns="http://www.w3.org/2000/svg" width="40" height="40" viewBox="0 0 40 40"><defs><style>.a,.b,.c{fill:none;}.b,.c{stroke:#f7ca11;stroke-linejoin:round;stroke-width:1.25px;}.c{stroke-linecap:round;}</style></defs><rect class="a" width="40" height="40"/><g transform="translate(-44.5 -2972.5)"><path class="b" d="M79.493,3001.478l.007-3.613c-3.267.624-5.295-2.365-5.295-2.365H74.2a5.771,5.771,0,0,1-9.436,0h-.005a5.769,5.769,0,0,1-9.435,0h-.005s-2.613,3.039-5.81,2.417l-.009,3.562Z" transform="translate(0 6.022)"/><path class="b" d="M79.493,2998.674l.007-4.809c-3.267.624-5.295-2.365-5.295-2.365H74.2a5.771,5.771,0,0,1-9.436,0h-.005a5.769,5.769,0,0,1-9.435,0h-.005s-2.613,3.039-5.81,2.416l-.009,4.758" transform="translate(0 5.239)"/><line class="c" y1="11" transform="translate(75.907 2987)"/><line class="c" y2="11" transform="translate(53.087 2987)"/><path class="c" d="M49.5,2990.054l15-12.554,15,12.554" transform="translate(0)"/><path class="c" d="M65,2978.5h4.185v4.185" transform="translate(3.015 1.196)"/><rect class="c" width="4" height="4" transform="translate(62.221 2984.138)"/></g></svg>