<svg xmlns="http://www.w3.org/2000/svg" width="50" height="40" viewBox="0 0 50 40"><defs><style>.a,.b,.c,.d{fill:none;}.b,.c,.d{stroke:#f7ca11;stroke-width:1.25px;}.b,.c{stroke-linecap:round;}.b,.d{stroke-linejoin:round;}</style></defs><rect class="a" width="50" height="40"/><g transform="translate(-273 -1363)"><g transform="translate(12 0.536)"><path class="b" d="M753.5,539.858a7.358,7.358,0,0,0,7.358,7.357h13.981a3.187,3.187,0,0,0,3.187-3.19v-9.073a2.452,2.452,0,0,0-2.452-2.453H760.858A7.359,7.359,0,0,0,753.5,539.858Z" transform="translate(-487.5 834.965)"/><path class="c" d="M.546,0H6.18V8.336L.635,8.259Z" transform="translate(290.406 1370.59)"/><line class="b" x1="8.336" transform="translate(297.664 1374.893)"/><path class="d" d="M762.452,541.5v3.27H758.5" transform="translate(-479.714 840.737)"/><line class="b" y2="14.588" transform="translate(282.55 1367.464)"/><path class="c" d="M9.776,0H0" transform="translate(270.992 1397.464)"/><path class="b" d="M760.5,556.215h4.905l3.27-14.715h-4.9Z" transform="translate(-489.595 841.033)"/></g></g></svg>