<svg id="cleaning" xmlns="http://www.w3.org/2000/svg" width="40" height="40" viewBox="0 0 40 40">
  <rect id="Rectangle_2276" data-name="Rectangle 2276" width="40" height="40" fill="none"/>
  <g id="Group_3837" data-name="Group 3837" transform="translate(-1027 -717.031)">
    <path id="Path_82" data-name="Path 82" d="M1039.185,729.5l-4.585,16.75a2.655,2.655,0,0,0,2.606,3.162h10.155a2.654,2.654,0,0,0,2.474-3.617l-6.336-16.3Z" transform="translate(0.181 2.119)" fill="none" stroke="#f7ca11" stroke-linejoin="round" stroke-width="1"/>
    <path id="Path_83" data-name="Path 83" d="M1036.987,724.5,1034,731.138h14.769l1.825-1.991V724.5Z" transform="translate(0 0.481)" fill="none" stroke="#f7ca11" stroke-linejoin="round" stroke-width="1"/>
    <path id="Path_84" data-name="Path 84" d="M1044.135,729.5s-.664,4.648,3.319,5.31" transform="translate(3.306 2.119)" fill="none" stroke="#f7ca11" stroke-linecap="round" stroke-linejoin="round" stroke-width="1"/>
    <line id="Line_55" data-name="Line 55" x2="5.31" transform="translate(1055.904 727.636)" fill="none" stroke="#f7ca11" stroke-linecap="round" stroke-linejoin="round" stroke-width="1"/>
    <line id="Line_56" data-name="Line 56" x2="5.268" y2="2.945" transform="translate(1055.24 730.291)" fill="none" stroke="#f7ca11" stroke-linecap="round" stroke-linejoin="round" stroke-width="1"/>
    <line id="Line_57" data-name="Line 57" y1="1.95" x2="5.227" transform="translate(1055.24 723.031)" fill="none" stroke="#f7ca11" stroke-linecap="round" stroke-linejoin="round" stroke-width="1"/>
    <rect id="Rectangle_1041" data-name="Rectangle 1041" width="1.328" height="1.328" transform="translate(1050.594 726.309)" fill="none" stroke="#f7ca11" stroke-linejoin="round" stroke-width="1"/>
  </g>
</svg>
