<svg id="Garden_Lawn_Maintenance-hh" data-name="Garden/Lawn Maintenance-hh" xmlns="http://www.w3.org/2000/svg" width="60" height="40" viewBox="0 0 60 40">
  <rect id="Rectangle_2264" data-name="Rectangle 2264" width="60" height="40" fill="none"/>
  <g id="Group_3727" data-name="Group 3727" transform="translate(-332 -1363)">
    <g id="Group_3726" data-name="Group 3726">
      <g id="Group_3417" data-name="Group 3417" transform="translate(337 1368)">
        <path id="Path_73" data-name="Path 73" d="M302.922,3191.77a4.538,4.538,0,0,1-3.035,1.172,4.786,4.786,0,0,1-4.644-4.183l-.052-.415a4.7,4.7,0,0,1-.068-8.468l.064-.382a3.451,3.451,0,0,1,3.357-3.539l.336-.354a4.371,4.371,0,1,1,8.729,0l.336.354a3.451,3.451,0,0,1,3.357,3.539l.4.557a4.714,4.714,0,0,1-.38,8.284l-.078.425a4.787,4.787,0,0,1-4.644,4.182,4.544,4.544,0,0,1-3.011-1.149Z" transform="translate(-292.5 -3171)" fill="none" stroke="#f7ca11" stroke-linejoin="round" stroke-width="1.25"/>
        <line id="Line_44" data-name="Line 44" y2="20.145" transform="translate(10.744 9.855)" fill="none" stroke="#f7ca11" stroke-linecap="round" stroke-linejoin="round" stroke-width="1.25"/>
        <path id="Path_74" data-name="Path 74" d="M300.5,3184.372a5.372,5.372,0,0,0,5.372-5.372" transform="translate(-289.756 -3167.741)" fill="none" stroke="#f7ca11" stroke-linecap="round" stroke-linejoin="round" stroke-width="1.25"/>
        <path id="Path_75" data-name="Path 75" d="M301.529,3182.03A4.029,4.029,0,0,1,297.5,3178" transform="translate(-290.785 -3168.173)" fill="none" stroke="#f7ca11" stroke-linecap="round" stroke-linejoin="round" stroke-width="1.25"/>
      </g>
      <g id="Group_3419" data-name="Group 3419" transform="translate(354.122 1369.257)">
        <g id="Group_3418" data-name="Group 3418" transform="translate(0 0)">
          <line id="Line_45" data-name="Line 45" x2="46.754" transform="translate(-14.622 28.743)" fill="none" stroke="#f7ca11" stroke-linecap="round" stroke-linejoin="round" stroke-width="1.25"/>
          <line id="Line_46" data-name="Line 46" y1="5.355" x2="13.924" transform="translate(0 11.01)" fill="none" stroke="#f7ca11" stroke-linecap="round" stroke-linejoin="round" stroke-width="1.25"/>
          <line id="Line_47" data-name="Line 47" y2="12.764" transform="translate(2.354 15.979)" fill="none" stroke="#f7ca11" stroke-linejoin="round" stroke-width="1.25"/>
          <line id="Line_48" data-name="Line 48" x2="21.077" y2="13.082" transform="translate(11.802 0)" fill="none" stroke="#f7ca11" stroke-linecap="round" stroke-linejoin="round" stroke-width="1.25"/>
          <line id="Line_49" data-name="Line 49" y2="17.5" transform="translate(29.971 11.243)" fill="none" stroke="#f7ca11" stroke-linejoin="round" stroke-width="1.25"/>
          <path id="Path_76" data-name="Path 76" d="M451.5,1021.179V1015.5h2.907v7.474" transform="translate(-425.889 -1012.593)" fill="none" stroke="#f7ca11" stroke-linejoin="round" stroke-width="1.25"/>
          <rect id="Rectangle_1035" data-name="Rectangle 1035" width="9.64" height="5.355" transform="translate(17.137 23.388)" stroke-width="1.25" stroke="#f7ca11" stroke-linecap="round" stroke-linejoin="round" fill="none"/>
          <line id="Line_50" data-name="Line 50" y2="5.355" transform="translate(23.563 23.388)" fill="none" stroke="#f7ca11" stroke-linecap="round" stroke-linejoin="round" stroke-width="1.25"/>
          <circle id="Ellipse_279" data-name="Ellipse 279" cx="2.18" cy="2.18" r="2.18" transform="translate(16.889 9.905)" stroke-width="1.25" stroke="#f7ca11" stroke-linecap="round" stroke-linejoin="round" fill="none"/>
          <rect id="Rectangle_1036" data-name="Rectangle 1036" width="6.426" height="7.497" transform="translate(5.355 21.246)" stroke-width="1.25" stroke="#f7ca11" stroke-linecap="round" stroke-linejoin="round" fill="none"/>
          <line id="Line_51" data-name="Line 51" x2="6.426" transform="translate(5.355 17.596)" fill="none" stroke="#f7ca11" stroke-linecap="round" stroke-linejoin="round" stroke-width="1.25"/>
          <line id="Line_52" data-name="Line 52" y2="27.358" transform="translate(13.982 1.385)" fill="none" stroke="#f7ca11" stroke-linejoin="round" stroke-width="1.25"/>
        </g>
      </g>
    </g>
  </g>
</svg>
