<svg xmlns="http://www.w3.org/2000/svg" xmlns:xlink="http://www.w3.org/1999/xlink" width="24.449" height="24.449" viewBox="0 0 24.449 24.449"><defs><style>.a{fill:none;}.b{clip-path:url(#a);}.c{fill:#fff;}</style><clipPath id="a"><rect class="a" width="24.449" height="24.449"/></clipPath></defs><g class="b"><path class="c" d="M22.639,24.449H1.8A1.786,1.786,0,0,1,0,22.685V1.763A1.785,1.785,0,0,1,1.8,0H22.639a1.789,1.789,0,0,1,1.81,1.763V22.685A1.79,1.79,0,0,1,22.639,24.449ZM9.528,9.166V20.834h3.621V15.062c0-1.482.258-3,2.173-3,1.885,0,1.885,1.788,1.885,3.093v5.676h3.625v-6.4c0-2.887-.527-5.559-4.35-5.559a3.836,3.836,0,0,0-3.431,1.884H13V9.166Zm-5.907,0V20.834H7.25V9.166Zm1.818-5.8a2.1,2.1,0,1,0,2.1,2.1A2.107,2.107,0,0,0,5.439,3.365Z" transform="translate(0)"/></g></svg>