<svg xmlns="http://www.w3.org/2000/svg" xmlns:xlink="http://www.w3.org/1999/xlink" width="24.449" height="24.449" viewBox="0 0 24.449 24.449"><defs><style>.a{fill:none;}.b{clip-path:url(#a);}.c{fill:#eaeaea;}</style><clipPath id="a"><rect class="a" width="24.449" height="24.449"/></clipPath></defs><g class="b"><path class="c" d="M21.393,24.449H3.056A3.059,3.059,0,0,1,0,21.393V3.056A3.059,3.059,0,0,1,3.056,0H21.393a3.059,3.059,0,0,1,3.056,3.056V21.393A3.059,3.059,0,0,1,21.393,24.449Zm-16.8-7.414v0a8.922,8.922,0,0,0,4.8,1.4,8.543,8.543,0,0,0,6.62-2.907,9.224,9.224,0,0,0,2.3-6.01c0-.133,0-.27-.005-.4a6.416,6.416,0,0,0,1.564-1.627,6.274,6.274,0,0,1-1.8.5,3.149,3.149,0,0,0,1.382-1.736A6.226,6.226,0,0,1,17.451,7,3.135,3.135,0,0,0,12.029,9.15a3.5,3.5,0,0,0,.078.715,8.919,8.919,0,0,1-6.46-3.276,3.147,3.147,0,0,0,.971,4.188A3.2,3.2,0,0,1,5.2,10.385v.043A3.142,3.142,0,0,0,7.714,13.5a3.087,3.087,0,0,1-.825.11,3.18,3.18,0,0,1-.587-.055,3.129,3.129,0,0,0,2.928,2.176,6.254,6.254,0,0,1-3.893,1.345A6.123,6.123,0,0,1,4.592,17.035Z"/></g></svg>