<svg xmlns="http://www.w3.org/2000/svg" xmlns:xlink="http://www.w3.org/1999/xlink" width="24.449" height="24.449" viewBox="0 0 24.449 24.449"><defs><style>.a{fill:none;}.b{clip-path:url(#a);}.c{fill:#fff;}</style><clipPath id="a"><rect class="a" width="24.449" height="24.449"/></clipPath></defs><g class="b"><path class="c" d="M23.1,0H1.349A1.349,1.349,0,0,0,0,1.349V23.1a1.349,1.349,0,0,0,1.349,1.349H13.068V14.994H9.885v-3.7h3.183V8.57c0-3.157,1.931-4.877,4.746-4.877a27.062,27.062,0,0,1,2.841.143v3.3H18.716c-1.534,0-1.834.725-1.834,1.8v2.356H20.55l-.476,3.7H16.861v9.459H23.1A1.349,1.349,0,0,0,24.449,23.1V1.349A1.349,1.349,0,0,0,23.1,0Z" transform="translate(0 0)"/></g></svg>